<svg t="1677593222936" class="icon" viewBox="0 0 1024 1024" version="1.1" xmlns="http://www.w3.org/2000/svg" p-id="5655" width="200" height="200"><path d="M420.66 510.78c0.67-0.72 27.89-30.16 57.9-59.71h23.54v59.71z m83.59-171c175.37-63.57 262.81-52.78 262.82 51.61v275.1s0.13 0.75 0.29 1.81l-40-99.07-62.57 19.52 10.78 44.07c-16 12-55.78 20.94-55.78 27.63V540.6h117.8v-30H619.81v-59.67h117.78v-59.69H520.78c16.85 0 25.47-34 29-46.2z m383.58 335.29C908.17 480.8 882.59 357 882.59 357s-22.4-179.16-409.52-68.11c16.41-29.17 24.53-48.28 24.53-48.28l-96.75-27.34S362 342.12 292.45 402.36c0 0 67.26 39.19 66.59 38.15a716.47 716.47 0 0 0 51.58-58.68q22.28-10 44.84-19.24c-17.79 32.69-46.74 81.42-75.68 112.28l40.59 35.91h-65.53v29.87h147.27v129.88c-14.69-0.83-32.31-7.24-41.17-21.69-11-17.65-3-48.43-2.41-78.33h-93l-3.39 10s-34 162.93 98.41 159.54c123.78 3.32 194.78-34.93 228.79-61.44l13.51 51.17 63.54-26.76c-5.63 25.78-25.2 55.13-86.32 51.16l-48.35-12.58-13.48 55.56s249.22 72.16 269.59-122.09z m-569.14-74.28c18.58-58.48 22.57-103.09-9-135.12-40.77-41.48-45.37-45.29-105.87-90.83l-43.31 67.65 80.21 50.71s53.38 27.67 28 79.61c-24 49.27-140.81 157-140.81 157L232.69 796c72.31-159.25 67.8-138 86-195.21zM261.05 223.9c-38.09 0-69 28.2-69 62.81s30.91 62.72 69 62.72 69-28.19 69-62.72-30.85-62.81-69-62.81zM170.67 0h682.66A170.67 170.67 0 0 1 1024 170.67v682.66A170.67 170.67 0 0 1 853.33 1024H170.67A170.67 170.67 0 0 1 0 853.33V170.67A170.67 170.67 0 0 1 170.67 0z" fill="#FF6600" p-id="5656"></path></svg>